<svg xmlns="http://www.w3.org/2000/svg" viewBox="0 0 512 512">
  <circle cx="256" cy="256" r="256" fill="#F0F0F0"/>
  <g fill="#D80027">
    <rect x="0" y="114" width="512" height="40" rx="0"/>
    <rect x="0" y="192" width="512" height="40" rx="0"/>
    <rect x="0" y="270" width="512" height="40" rx="0"/>
    <rect x="0" y="348" width="512" height="40" rx="0"/>
  </g>
  <rect x="0" y="74" width="250" height="200" fill="#0052B4"/>
  <g fill="#F0F0F0">
    <circle cx="95" cy="120" r="8"/>
    <circle cx="135" cy="120" r="8"/>
    <circle cx="175" cy="120" r="8"/>
    <circle cx="75" cy="145" r="8"/>
    <circle cx="115" cy="145" r="8"/>
    <circle cx="155" cy="145" r="8"/>
    <circle cx="195" cy="145" r="8"/>
    <circle cx="95" cy="170" r="8"/>
    <circle cx="135" cy="170" r="8"/>
    <circle cx="175" cy="170" r="8"/>
    <circle cx="75" cy="195" r="8"/>
    <circle cx="115" cy="195" r="8"/>
    <circle cx="155" cy="195" r="8"/>
    <circle cx="195" cy="195" r="8"/>
    <circle cx="95" cy="220" r="8"/>
    <circle cx="135" cy="220" r="8"/>
    <circle cx="175" cy="220" r="8"/>
  </g>
</svg>
